<?xml version="1.0" encoding="UTF-8"?>
<svg width="78px" height="81px" viewBox="0 0 78 81" version="1.1" xmlns="http://www.w3.org/2000/svg" xmlns:xlink="http://www.w3.org/1999/xlink">
    <!-- Generator: Sketch 59.1 (86144) - https://sketch.com -->
    <title>noun_person_1691899</title>
    <desc>Created with Sketch.</desc>
    <g id="Page-1" stroke="none" stroke-width="1" fill="none" fill-rule="evenodd">
        <g id="noun_person_1691899" fill="#AF906B" fill-rule="nonzero">
            <path d="M39,46.4 C26.4,46.4 16.2,36.2 16.2,23.6 C16.2,11 26.4,0.8 39,0.8 C51.6,0.8 61.8,11 61.8,23.6 C61.8,36.2 51.6,46.4 39,46.4 Z M39,3.9 C28.1,3.9 19.2,12.8 19.2,23.7 C19.2,34.6 28.1,43.4 39,43.4 C49.9,43.4 58.8,34.5 58.8,23.6 C58.8,12.7 49.9,3.9 39,3.9 Z" id="Shape"></path>
            <path d="M71,80.4 L7,80.4 C4.9,80.4 2.9,79.4 1.7,77.7 C0.5,76 0.2,73.7 0.9,71.7 C5.2,59.6 15.2,50.1 27.6,46.5 C28.3,46.3 29.1,46.4 29.8,46.7 C32.7,48.2 35.8,49 39,49 C42.2,49 45.3,48.2 48.2,46.7 C48.9,46.3 49.7,46.2 50.4,46.5 C62.8,50.1 72.7,59.6 77.1,71.7 L77.1,71.7 C77.8,73.7 77.5,75.9 76.3,77.7 C75.1,79.4 73.2,80.4 71,80.4 Z M27.5,49.6 C16.5,53.1 7.6,61.7 3.7,72.6 C3.4,73.6 3.4,74.6 3.9,75.5 C4.5,76.7 5.7,77.4 7,77.4 L70.9,77.4 C72,77.4 73.4,76.7 74,75.8 C74.6,74.9 74.8,73.7 74.4,72.7 L74.4,72.7 C70.5,61.7 61.6,53.2 50.6,49.6 C50,49.4 49.4,49.5 48.9,49.7 C42.8,52.6 35.4,52.6 29.3,49.7 C28.7,49.5 28.1,49.5 27.5,49.6 Z" id="Shape"></path>
        </g>
    </g>
</svg>